<svg id="레이어_1" data-name="레이어 1" xmlns="http://www.w3.org/2000/svg" viewBox="0 0 739.23 410.83"><defs><style>.cls-1{fill:#087354;}.cls-2{fill:#259873;}.cls-3{fill:#41a051;}.cls-4{fill:#fff;}.cls-5{fill:#972a40;}.cls-6{fill:#d72d66;}.cls-7{fill:#d9507d;}.cls-8{fill:#135e8e;}.cls-9{fill:#3381bc;}.cls-10{fill:#3092c8;}.cls-11{fill:#9d5925;}.cls-12{fill:#eb9c1f;}.cls-13{fill:#ebac1e;}.cls-14{fill:#086e3c;}.cls-15{fill:#259355;}.cls-16{fill:#259a6a;}.cls-17{fill:#29973c;}.cls-18{fill:#fff100;}</style></defs><path class="cls-1" d="M627.62,102.8s5.67-5,4.67-9.71c0,0-1-1.14-3.6.91s6.72-5.32,2.6-14.89c0,0-15.14,9.49-12.72,24.31" transform="translate(-52.38 -79.11)"/><path class="cls-1" d="M570.45,85.75l-.79,7.1c0,.25.93,8.47,13.6,4.22,0,0,0,4.67,0,4.67a44.77,44.77,0,0,0,16,3.73s8.09-5.35,7.5-8.4C604.72,86.69,570.54,85.67,570.45,85.75Z" transform="translate(-52.38 -79.11)"/><path class="cls-1" d="M609.05,124.55c-2.75,5-18.8,8.51-18.8,8.51-2.12-3.1.83-6.61.83-6.61-7.09,6.31-22.81,5.79-22.81,5.79,3.09-19.71,42.67-18.74,42.67-18.74Z" transform="translate(-52.38 -79.11)"/><path class="cls-1" d="M616.75,119.14c1.76,22.18-7,48.07-7,48.07s-39,7.47-23-9.55Z" transform="translate(-52.38 -79.11)"/><path class="cls-1" d="M641.2,143.43a17,17,0,0,0,0-2.26v-5.71h-.94c-1.49-5.56-4.7-11.67-9.86-15.58l-13.67-1s2.06,21.42,9.68,21.52a5.72,5.72,0,0,0,2.18-5.68s4.47,13.91,9.8,13.67c1.45-.07,2.37-1.58,2.71-3.92h.1Z" transform="translate(-52.38 -79.11)"/><path class="cls-1" d="M657.17,114.92v-4.47l-7.77-2.85c-5.23-2.53-13.79-4.23-27.67-2l8.82,10.74s10.76,8.1,14.51,4.36h0a9.65,9.65,0,0,0,0-1.2v-3.82h-1.3a3.9,3.9,0,0,0-.76-.7s9.69,3.08,14.16,0Z" transform="translate(-52.38 -79.11)"/><path class="cls-1" d="M570.52,117.05a20.39,20.39,0,0,0-2.38,6.74h0v8.42L576.2,126l0-8.91Z" transform="translate(-52.38 -79.11)"/><path class="cls-2" d="M616.75,119.12s5.68,13.18,9.8,13.3a5.72,5.72,0,0,0,2.18-5.68s4.47,13.91,9.79,13.67,3.51-19.84-8-28.55c0,0,10.77,8.1,14.52,4.35,0,0,.37-4-2.06-5.73,0,0,9.7,3.1,14.17,0,0,0-4.77-14.25-35.45-9.33,0,0,6.75-3.38,7-8.2,0,0-.73-1.37-3.72,0s7.87-3.43,6.32-13.73c0,0-17.06,5.32-18.5,20.26a2.75,2.75,0,0,1-3.33,0s-6.84-29.23-39-13.66c0,0,5.38,10,19.72,7.4,0,0-5.38.33-7,3.92,0,0,8.07,6.83,15.35,8.4,0,0-27.38-1.39-30.47,18.32,0,0,15.72.51,22.81-5.8,0,0-3,3.52-.83,6.62,0,0,16-3.55,18.8-8.51,0,0-8.12,23-25.85,38.32S605,166.24,605,166.24,614.32,140.91,616.75,119.12Z" transform="translate(-52.38 -79.11)"/><path class="cls-2" d="M615,267.28c.18-.35.36-.7.52-1,2.79-10.35,24.28-94.47-6.65-113.77,0,0-39.82-35.8-83.43,1.21-21.77,18.48-22.85,48.49-5.2,112.92.11.21.23.41.35.61h12.21c4.64,0,9.08-2.69,11.65-2.68,4.94,0,14.48,2.71,23.35,2.71a120.12,120.12,0,0,0,23.1-2.56l13.42,2.59Z" transform="translate(-52.38 -79.11)"/><path class="cls-3" d="M485.52,269.47a21.75,21.75,0,0,0,2-4.19c4.42-19,20.57-96.64-7.13-115.23,0,0-38.19-36.93-80,1.24-19.95,18.21-21.77,48.18-7.14,108.77v0l0,.24.39,1.61a26.45,26.45,0,0,0,3.23,7.5h7.83l14.38-3.79,23.08,3.83,20.24-3.79,15.1,3.82Z" transform="translate(-52.38 -79.11)"/><path class="cls-1" d="M486,268.62a3.86,3.86,0,0,0-1.52-.31c-4.06,0-5.89-1.43-8.42-3.4-2.91-2.27-6.53-5.1-13.35-5.1s-10.44,2.83-13.35,5.1c-2.53,2-4.35,3.4-8.42,3.4s-5.89-1.43-8.42-3.4c-2.91-2.27-6.53-5.1-13.35-5.1s-10.44,2.83-13.35,5.1c-2.53,2-4.36,3.4-8.43,3.4a3.93,3.93,0,0,0-1.08.17c2.24,3.84,5.89,7.08,11.54,4.84,1.07-.69,2-1.42,2.89-2.11,2.53-2,4.36-3.4,8.43-3.4s5.89,1.43,8.42,3.4c2.91,2.27,6.53,5.1,13.35,5.1s10.44-2.83,13.35-5.1c2.53-2,4.36-3.4,8.42-3.4s5.89,1.43,8.42,3.4c.74.58,1.53,1.19,2.4,1.79C480,276.12,483.81,272.63,486,268.62Z" transform="translate(-52.38 -79.11)"/><path class="cls-2" d="M360.8,267.49a22.61,22.61,0,0,0,1.6-3.24c4.4-16,21.9-86.86-7.29-103.68,0,0-39.82-33.07-83.43,1.11-20.6,16.15-22.67,42.61-7.9,95.8v0l0,.15c.39,1.4.78,2.8,1.19,4.23a24.65,24.65,0,0,0,2.74,5.59h8.07l15.76-2.84,22.11,2.87,23.42-2.83,15.95,2.86Z" transform="translate(-52.38 -79.11)"/><path class="cls-1" d="M361.23,266.74a3.88,3.88,0,0,0-1.82-.47c-4.35,0-6.28-1.44-9-3.45-3-2.25-6.74-5.05-13.74-5.05S326,260.57,323,262.82c-2.68,2-4.61,3.45-9,3.45s-6.27-1.44-8.95-3.45c-3-2.25-6.74-5.05-13.75-5.05s-10.75,2.8-13.75,5.05c-2.68,2-4.61,3.45-8.95,3.45a4.11,4.11,0,0,0-1.41.27c2.49,4.12,6.57,7.42,12.93,4.28.8-.53,1.53-1.08,2.23-1.6,2.67-2,4.61-3.45,8.95-3.45s6.28,1.45,8.95,3.45c3,2.25,6.75,5,13.75,5s10.75-2.8,13.75-5c2.68-2,4.61-3.45,9-3.45s6.27,1.45,9,3.45a31.06,31.06,0,0,0,4.21,2.8C355.58,274,359.12,270.58,361.23,266.74Z" transform="translate(-52.38 -79.11)"/><path class="cls-4" d="M131.86,269h-1.41q-1-3.45-1.83-6.79A27.48,27.48,0,0,0,131.86,269Z" transform="translate(-52.38 -79.11)"/><path class="cls-5" d="M225.08,350s-4.09,86.68-.91,95.17c0,0,2.6,24.58-13.23,23.19s-138.78-3.15-150.12-.4c0,0-7.08,1.54-6.24-14.24,0,0-5.65-137.87,1.15-148.75,0,0,3.72-6.23,18-4.88H201s23.46-3.92,23.46,15.39Z" transform="translate(-52.38 -79.11)"/><path class="cls-6" d="M225.54,337.77s-4.09,86.67-.91,95.16c0,0,2.6,24.59-13.23,23.19S72.62,453,61.28,455.72c0,0-7.08,1.54-6.24-14.24,0,0-5.65-137.86,1.15-148.74,0,0,3.72-6.24,18-4.89H201.43s23.46-3.91,23.46,15.4Z" transform="translate(-52.38 -79.11)"/><path class="cls-7" d="M62.25,396.39S58.67,298.86,122,333.1c0,0,32.64,18.31,10,78,0,0-14.72,55.33-41.79,35C90.12,446.14,64.24,443,62.25,396.39Z" transform="translate(-52.38 -79.11)"/><path class="cls-7" d="M79.27,288s-26.7,35.88-26.41,44.78-.48-35.94,4-40.5S68.72,287.13,79.27,288Z" transform="translate(-52.38 -79.11)"/><path class="cls-7" d="M207,455.81l-54.56-1.26s33.55-83.75-7.63-166.7h47.65S217.62,389.33,207,455.81Z" transform="translate(-52.38 -79.11)"/><path class="cls-8" d="M411.94,348.37s-3.87,86.68-.86,95.16c0,0,2.46,24.59-12.53,23.19s-131.36-3.14-142.09-.4c0,0-6.7,1.55-5.91-14.24,0,0-5.34-137.86,1.09-148.74,0,0,3.52-6.24,17-4.89H389.12s22.2-3.91,22.2,15.4Z" transform="translate(-52.38 -79.11)"/><path class="cls-9" d="M412.25,336.46s-3.9,86.68-.87,95.17c0,0,2.47,24.59-12.61,23.19s-132.26-3.14-143.06-.4c0,0-6.74,1.54-6-14.24,0,0-5.38-137.87,1.1-148.74,0,0,3.55-6.24,17.13-4.89H389.27s22.35-3.91,22.35,15.4Z" transform="translate(-52.38 -79.11)"/><path class="cls-10" d="M410.26,415.16s-141.9-3.45-161.6-9.56l.79,24.51s155.15,13.39,161.88,9.5a25.82,25.82,0,0,0,.2-5.51c-.11-1.47-.84-5-1-8.57C410.32,420.55,410.26,415.16,410.26,415.16Z" transform="translate(-52.38 -79.11)"/><path class="cls-10" d="M412.14,326.43s-130.1.47-164.44,8.81l.21,36.57s56,35.1,162.33,35.1V389.37Z" transform="translate(-52.38 -79.11)"/><path class="cls-10" d="M411.86,315s-144.07,2.38-163.94,7.71l.62-17s156.28-7.58,163.07-4.18Z" transform="translate(-52.38 -79.11)"/><path class="cls-9" d="M412.12,334.84s-200.32-2.2-129.57,30.71c0,0,38.52,24.46,128,23.66" transform="translate(-52.38 -79.11)"/><path class="cls-10" d="M410.94,372.1s-105.2,2.79-95.38-17.08c0,0-1.4-9.42,96.11-5.93Z" transform="translate(-52.38 -79.11)"/><path class="cls-11" d="M552.9,384.23s-2.78,62.32-.62,68.42c0,0,1.77,17.67-9,16.67s-94.45-2.26-102.16-.29c0,0-4.82,1.11-4.25-10.23,0,0-3.84-99.12.78-106.95,0,0,2.54-4.48,12.24-3.51h86.6s16-2.81,16,11.07Z" transform="translate(-52.38 -79.11)"/><path class="cls-12" d="M553.66,372.85c0,16.16-2.58,60.07-.4,65.94,0,0,1.78,17-9.07,16.06s-95.08-2.18-102.85-.28c0,0-4.84,1.07-4.28-9.86,0,0-3.86-95.46.8-103,0,0,2.54-4.32,12.31-3.39h87.19s16.08-2.7,16.08,10.66C553.44,349,553.66,365,553.66,372.85Z" transform="translate(-52.38 -79.11)"/><path class="cls-13" d="M552.44,428.37S463.72,438.78,437,441.7c0,0-1.24,14.65,5.1,12.74S552.16,434.3,552.7,435.15Z" transform="translate(-52.38 -79.11)"/><path class="cls-13" d="M553.66,367.29c-15.66-6.91-51.51-13.39-93.37-17a117.33,117.33,0,0,0-24,.35c-.14,3.1-.41,9.9-.51,20.91a83.72,83.72,0,0,1,20.59-1.24c32.52,2,58.95,6.56,59.67,10.85,1.23,7.3-26.19,18-58.6,21.74-7.51.87-14.76,2-21.48,2.68.1,5.33.22,11.06.39,17.22,8.45-1.25,17.29-2.7,26.35-3.9,39.6-5.26,74.76-18.11,90.6-30.64C553.51,381.19,553.63,368.68,553.66,367.29Z" transform="translate(-52.38 -79.11)"/><path class="cls-14" d="M776.08,407.74a36,36,0,0,0,15.16-29c0-15.58-10.39-28.89-25.08-34.33a37.75,37.75,0,0,0,2.43-13.36c0-21.4-17.82-38.75-39.81-38.75a41,41,0,0,0-7.31.67c-2.21-16.92-19.85-30.11-41.29-30.11-22.1,0-40.17,14-41.45,31.7a38.65,38.65,0,0,0-4.05-.22c-20.64,0-37.38,16.29-37.38,36.39a35.37,35.37,0,0,0,2.48,13c-15,7.24-25.25,21.2-25.25,37.25,0,12.51,6.19,23.75,16.05,31.53a45.55,45.55,0,0,0-4.22,19.18c0,26,21.83,47.16,48.76,47.16a50.44,50.44,0,0,0,12.07-1.46c-2,10.68,4.34,12.5,4.34,12.5h42.55c10.69,0,17.09.2,20.52-.67h.24a3.86,3.86,0,0,0,.61-.26,3.39,3.39,0,0,0,2.14-1.77c1.75-2.18,3.22-6.57.38-15.1a55.62,55.62,0,0,0,20.91,4c26.92,0,48.75-18.6,48.75-41.55C787.63,424.35,783.28,415,776.08,407.74Z" transform="translate(-52.38 -79.11)"/><path class="cls-15" d="M776.08,397.76c9.23-6.76,15.16-17.23,15.16-29,0-15.57-10.39-28.89-25.08-34.32a37.85,37.85,0,0,0,2.43-13.37c0-21.4-17.82-38.75-39.81-38.75a41,41,0,0,0-7.31.67c-2.21-16.92-19.85-30.11-41.29-30.11-22.1,0-40.17,14-41.45,31.7a38.65,38.65,0,0,0-4.05-.22c-20.64,0-37.38,16.29-37.38,36.39a35.29,35.29,0,0,0,2.48,13C584.73,341,574.53,355,574.53,371c0,12.51,6.19,23.75,16.05,31.53a45.55,45.55,0,0,0-4.22,19.18c0,26.05,21.83,47.16,48.76,47.16a50.44,50.44,0,0,0,12.07-1.46c-2,10.68,4.34,12.51,4.34,12.51h42.55c10.69,0,17.09.19,20.52-.67h.24a5.61,5.61,0,0,0,.61-.26,3.45,3.45,0,0,0,2.14-1.77c1.75-2.19,3.22-6.58.38-15.11a55.62,55.62,0,0,0,20.91,4c26.92,0,48.75-18.6,48.75-41.54C787.63,414.37,783.28,405,776.08,397.76Z" transform="translate(-52.38 -79.11)"/><path class="cls-16" d="M591,403.68s-7.35,13.12-2.52,32.47c0,0,136.41,28.15,172.4,26.44,0,0,25.68-9.51,26.51-33C787.38,429.56,691.15,422.63,591,403.68Z" transform="translate(-52.38 -79.11)"/><path class="cls-16" d="M769.52,336.68c-1.22-.06-2.44-.1-3.68-.14-54.54-1.73-99.15,9.17-99.63,24.35s43.35,28.87,97.9,30.59c6.78.22,12.35.32,18.76.16,4.83-6.11,8.73-13.73,8.73-21.89C791.6,355.26,782.61,342.73,769.52,336.68Z" transform="translate(-52.38 -79.11)"/><path class="cls-16" d="M728.52,282.84a40.89,40.89,0,0,0-7.31.67,27.4,27.4,0,0,0-.7-3.52c-37.19-6.57-63-5.41-80.89-1a28,28,0,0,0-1.15,6.13,38.65,38.65,0,0,0-4.05-.22,37.79,37.79,0,0,0-26.48,10.71c-6.26,6.53-7.63,12.12-7.63,12.12,10.75-2.15,148.05-5.58,162.42-5.93A40,40,0,0,0,728.52,282.84Z" transform="translate(-52.38 -79.11)"/><path class="cls-17" d="M232.58,269.12a26.26,26.26,0,0,0,3-6.81c5.7-23.47,21.68-100.47-8.69-119.42,0,0-43.42-39-91,1.32-22.57,19.15-24.74,50.6-8.38,114l0-.1s0,.32.17.88c.24.93.47,1.85.72,2.79A24.48,24.48,0,0,0,132,269h8.49l5.4-.94,10.86-1.89,15.79,1.89,8.17,1,8.8-1,16.66-1.86,10.6,1.86,5.82,1Z" transform="translate(-52.38 -79.11)"/><path class="cls-1" d="M227.16,233.64q1.59,2.16-.15,4.81t-7.39,5.38q-16.1,7.62-38.06,8t-34.73-5.67c-4.55-2.2-7.61-4.52-9.21-7s-1.81-4.67-.65-6.68c1.25-2.2,3.6-3.49,7-3.87s8.24.29,14.43,2a135.29,135.29,0,0,0,20.73,4,30,30,0,0,0,0-4.24c-.09-1.48-.29-3.56-.58-6.24a7.67,7.67,0,0,1,.58-4.38,3.77,3.77,0,0,1,3.05-1.94,4.82,4.82,0,0,1,3.84,1.08,10.47,10.47,0,0,1,2.83,4.67,37.29,37.29,0,0,1,2.17,11.62,107.18,107.18,0,0,0,21-2.44,42.94,42.94,0,0,1,10-1.29A6.48,6.48,0,0,1,227.16,233.64ZM201.78,205.8c-.09.48-.75,1.22-1.95,2.22a21.37,21.37,0,0,1-6.46,3.09q-11.31,3.73-19.5,2.44t-12.25-5.17a26.82,26.82,0,0,1-7.47-13.63,66.82,66.82,0,0,1-1.38-20c.2-3.44.82-6,1.89-7.67a5,5,0,0,1,4.49-2.52,6.37,6.37,0,0,1,3.92,1.3,10.21,10.21,0,0,1,2.32,2.15,29.48,29.48,0,0,1,5.94-.86,91.87,91.87,0,0,1,18.71.14q7.83,1,11.6,4.31a16.2,16.2,0,0,1,5.73,10.83,49.68,49.68,0,0,1-.08,12.85c-.48,3.44-1.21,5.93-2.17,7.46A7.08,7.08,0,0,1,201.78,205.8Zm-31.9-26.27q1.74,12.06,3,15.07a8.51,8.51,0,0,0,3.4,4.31q2.33,1.44,9.36.57c4.68-.57,7.66-.72,8.91-.43a26.73,26.73,0,0,1,.15-4.74,39.19,39.19,0,0,0-.22-10.47,10.34,10.34,0,0,0-3.55-6.61q-2.32-1.71-7.25-2.15a59.31,59.31,0,0,0-10.15,0,13.59,13.59,0,0,1-4.64-.43C169.25,176.18,169.59,177.81,169.88,179.53Z" transform="translate(-52.38 -79.11)"/><path class="cls-1" d="M289.63,235q-8.25-.12-12.09-6.25t-2.82-14.81q.78-6.8,4.52-10a13,13,0,0,1,8.24-3.33,15.89,15.89,0,0,1,10.74,3.87q4.86,4,4.86,13.12a20.85,20.85,0,0,1-3.73,12.16Q295.62,235.14,289.63,235Zm-.9-11.28a5.63,5.63,0,0,0,4.46-2.58,8.14,8.14,0,0,0,1.75-5.71q-.33-4.08-2.6-5.91a7,7,0,0,0-4.4-1.83,5.74,5.74,0,0,0-4,1.83,7.15,7.15,0,0,0-2.15,4.83,10,10,0,0,0,1.53,6.66A6.11,6.11,0,0,0,288.73,223.72ZM340,209.86a14.85,14.85,0,0,1,2.77-.81,27,27,0,0,1,4.46-.55,74.26,74.26,0,0,1,9.72.41c3.54.36,5.65,1.09,6.33,2.17,1,1.55.07,3.15-2.71,4.83a15.91,15.91,0,0,1-8.25,2.51,29.61,29.61,0,0,1-6.9-.68,26.49,26.49,0,0,1-4.06-1.22,58.43,58.43,0,0,1-1.47,24.74,13.81,13.81,0,0,1-4.41,7.13,7.88,7.88,0,0,1-6.78,2q-4.74-.81-5.93-6.32a40.49,40.49,0,0,1-.51-12.43,128.43,128.43,0,0,0,.28-18.62,118.31,118.31,0,0,0-4.35-25.15,28.57,28.57,0,0,1-1-5.16c-.19-1.9.24-3.26,1.3-4.08s2.5-.7,4.12.34a21.23,21.23,0,0,1,4.92,4.69A72.24,72.24,0,0,1,340,209.86Z" transform="translate(-52.38 -79.11)"/><path class="cls-1" d="M411.71,229.55c3.31.37,7.56.72,12.74,1.08,0-.36-.05-1.09-.16-2.21s-.38-2.72-.81-4.81a9.3,9.3,0,0,1-.16-3,2.32,2.32,0,0,1,1.78-2.05,3.17,3.17,0,0,1,2.64.32,6.71,6.71,0,0,1,2.33,2.27,14.05,14.05,0,0,1,2,4.86,19.63,19.63,0,0,1,.38,4.75,71.81,71.81,0,0,0,11.23-1.08,47,47,0,0,1,4.76-.7,3.62,3.62,0,0,1,3,.92c.58.58.61,1.58.11,3s-1.87,2.88-4.1,4.32q-8.32,5.5-21.28,6.59t-20.52-3a10.32,10.32,0,0,1-4.75-4.59,5.11,5.11,0,0,1,0-4.81,4.34,4.34,0,0,1,3.72-2.11A33.82,33.82,0,0,1,411.71,229.55Zm4.64-39.31a6.65,6.65,0,0,1,5.56-.81,26.35,26.35,0,0,0,5,.92,47.87,47.87,0,0,0,5.4.11,11.38,11.38,0,0,1,2.92.11c-.5-2.6-1-5.4-1.51-8.43A5.74,5.74,0,0,1,434,179a3.11,3.11,0,0,1,4.53-1.52,9.36,9.36,0,0,1,2.48,3.41,31.43,31.43,0,0,1,3.14,11,20.1,20.1,0,0,1-3.14,12.9,11.54,11.54,0,0,1-2.21,2.81,8.54,8.54,0,0,1-1.46,1.08,12,12,0,0,1-3.13,3.57,17.8,17.8,0,0,1-11.66,3.94,16.57,16.57,0,0,1-11.88-4.48,19,19,0,0,1-4.92-8.59q-1.66-5.56-1.46-15a29.94,29.94,0,0,1,1.35-9.45c.83-2.19,2-3.44,3.51-3.72a4.15,4.15,0,0,1,3.46,1c1.08.86,1.87,2.63,2.38,5.29.36,1.87.64,3.64.86,5.29S416.21,189.38,416.35,190.24Zm19.55,4a21.69,21.69,0,0,1-5.46,1.62,19.11,19.11,0,0,1-8.58,0,11.43,11.43,0,0,1-5-2.49q1.08,7.68,4.81,10.53a10.79,10.79,0,0,0,8.15,2.33,25.8,25.8,0,0,0,5.08-1.08q.54-2.6.91-5.35A22,22,0,0,0,435.9,194.24Zm37,16.31a47,47,0,0,1,10.91-.76,11.74,11.74,0,0,1,4.7,1.19c1.19.65,1.74,1.4,1.67,2.27-.07,1.22-1,2.14-2.7,2.75a19.28,19.28,0,0,1-6.37.92,32.87,32.87,0,0,1-3.94-.27c-1.48-.18-2.72-.34-3.73-.49a72.8,72.8,0,0,1-1,15q-1,5.94-3.94,8.32a6.74,6.74,0,0,1-6.64,1.19,9.64,9.64,0,0,1-5.51-4.54,13.06,13.06,0,0,1-1.41-8.53,127.52,127.52,0,0,0,1.3-19.6,74.58,74.58,0,0,0-2.59-17.12c-.87-3.17-1.15-5.31-.87-6.43a2.71,2.71,0,0,1,1.84-2.1,4.85,4.85,0,0,1,3.78.54,15.37,15.37,0,0,1,4.54,4.32A50.62,50.62,0,0,1,472.94,210.55Z" transform="translate(-52.38 -79.11)"/><path class="cls-1" d="M610.05,232.93q1.55,2.1-.14,4.69t-7.14,5.25q-15.54,7.41-36.75,7.77t-33.53-5.53q-6.57-3.23-8.89-6.79t-.63-6.51c1.21-2.15,3.48-3.41,6.79-3.78s8,.28,13.93,2c3.55,1,7.1,1.86,10.64,2.52a44.77,44.77,0,0,1-2.24-6.37,87.51,87.51,0,0,1-2.52-11,16.89,16.89,0,0,1-.21-5.39q.35-2.17,1.47-2.73,2.52-1.26,6,1a16.29,16.29,0,0,1,5.6,6.16,30.56,30.56,0,0,1,3,8.26,44,44,0,0,1,.91,9.1,21.23,21.23,0,0,1-.14,2.52,96,96,0,0,0,29.26-2,40.82,40.82,0,0,1,9.66-1.26A6.17,6.17,0,0,1,610.05,232.93ZM547.61,186q-.14-9.39,5.6-14.21a20.65,20.65,0,0,1,13.3-5,17.39,17.39,0,0,1,12,4.62q5.53,4.75,5.11,14.56a15.42,15.42,0,0,1-5,11,18.48,18.48,0,0,1-10.71,5.11A20.46,20.46,0,0,1,554,198.84Q547.76,194.7,547.61,186Zm9.38-1.82q.13,4.2,2.66,5.95a8.19,8.19,0,0,0,5.18,1.61,8.61,8.61,0,0,0,6-2.38,8.1,8.1,0,0,0,2.38-5.6q.13-4.2-2.38-6.3a7.24,7.24,0,0,0-5-2,9.3,9.3,0,0,0-6.65,2.87A8,8,0,0,0,557,184.21Zm20.86,48.16a2.52,2.52,0,0,1-2.38-1.89,14.56,14.56,0,0,1-.14-5.53,73.18,73.18,0,0,0,.7-9.24q.15-5.75,1.47-7.63a3.65,3.65,0,0,1,2.87-1.89,3.77,3.77,0,0,1,3.43,2,11.81,11.81,0,0,1,1.47,5,43.86,43.86,0,0,1,.14,6.16,33.14,33.14,0,0,1-1,6.72,8.08,8.08,0,0,1-2.94,5A5.76,5.76,0,0,1,577.85,232.37Z" transform="translate(-52.38 -79.11)"/><path class="cls-18" d="M227.16,228.64q1.59,2.16-.15,4.81t-7.39,5.38q-16.1,7.62-38.06,8t-34.73-5.67c-4.55-2.2-7.61-4.52-9.21-7s-1.81-4.67-.65-6.68c1.25-2.2,3.6-3.49,7-3.87s8.24.29,14.43,2a135.29,135.29,0,0,0,20.73,4,30,30,0,0,0,0-4.24c-.09-1.48-.29-3.56-.58-6.24a7.67,7.67,0,0,1,.58-4.38,3.77,3.77,0,0,1,3.05-1.94,4.82,4.82,0,0,1,3.84,1.08,10.47,10.47,0,0,1,2.83,4.67,37.29,37.29,0,0,1,2.17,11.62,107.18,107.18,0,0,0,21-2.44,42.94,42.94,0,0,1,10-1.29A6.48,6.48,0,0,1,227.16,228.64ZM201.78,200.8c-.09.48-.75,1.22-1.95,2.22a21.37,21.37,0,0,1-6.46,3.09q-11.31,3.73-19.5,2.44t-12.25-5.17a26.82,26.82,0,0,1-7.47-13.63,66.82,66.82,0,0,1-1.38-20c.2-3.44.82-6,1.89-7.67a5,5,0,0,1,4.49-2.52,6.37,6.37,0,0,1,3.92,1.3,10.21,10.21,0,0,1,2.32,2.15,29.48,29.48,0,0,1,5.94-.86,91.87,91.87,0,0,1,18.71.14q7.83,1,11.6,4.31a16.2,16.2,0,0,1,5.73,10.83,49.68,49.68,0,0,1-.08,12.85c-.48,3.44-1.21,5.93-2.17,7.46A7.08,7.08,0,0,1,201.78,200.8Zm-31.9-26.27q1.74,12.06,3,15.07a8.51,8.51,0,0,0,3.4,4.31q2.33,1.44,9.36.57c4.68-.57,7.66-.72,8.91-.43a26.73,26.73,0,0,1,.15-4.74,39.19,39.19,0,0,0-.22-10.47,10.34,10.34,0,0,0-3.55-6.61q-2.32-1.71-7.25-2.15a59.31,59.31,0,0,0-10.15,0,13.59,13.59,0,0,1-4.64-.43C169.25,171.18,169.59,172.81,169.88,174.53Z" transform="translate(-52.38 -79.11)"/><path class="cls-18" d="M289.63,230q-8.25-.12-12.09-6.25t-2.82-14.81q.78-6.8,4.52-10a13,13,0,0,1,8.24-3.33,15.89,15.89,0,0,1,10.74,3.87q4.86,4,4.86,13.12a20.85,20.85,0,0,1-3.73,12.16Q295.62,230.14,289.63,230Zm-.9-11.28a5.63,5.63,0,0,0,4.46-2.58,8.14,8.14,0,0,0,1.75-5.71q-.33-4.08-2.6-5.91a7,7,0,0,0-4.4-1.83,5.74,5.74,0,0,0-4,1.83,7.15,7.15,0,0,0-2.15,4.83,10,10,0,0,0,1.53,6.66A6.11,6.11,0,0,0,288.73,218.72ZM340,204.86a14.85,14.85,0,0,1,2.77-.81,27,27,0,0,1,4.46-.55,74.26,74.26,0,0,1,9.72.41c3.54.36,5.65,1.09,6.33,2.17,1,1.55.07,3.15-2.71,4.83a15.91,15.91,0,0,1-8.25,2.51,29.61,29.61,0,0,1-6.9-.68,26.49,26.49,0,0,1-4.06-1.22,58.43,58.43,0,0,1-1.47,24.74,13.81,13.81,0,0,1-4.41,7.13,7.88,7.88,0,0,1-6.78,2q-4.74-.81-5.93-6.32a40.49,40.49,0,0,1-.51-12.43,128.43,128.43,0,0,0,.28-18.62,118.31,118.31,0,0,0-4.35-25.15,28.57,28.57,0,0,1-1-5.16c-.19-1.9.24-3.26,1.3-4.08s2.5-.7,4.12.34a21.23,21.23,0,0,1,4.92,4.69A72.24,72.24,0,0,1,340,204.86Z" transform="translate(-52.38 -79.11)"/><path class="cls-18" d="M411.71,224.55c3.31.37,7.56.72,12.74,1.08,0-.36-.05-1.09-.16-2.21s-.38-2.72-.81-4.81a9.3,9.3,0,0,1-.16-3,2.32,2.32,0,0,1,1.78-2.05,3.17,3.17,0,0,1,2.64.32,6.71,6.71,0,0,1,2.33,2.27,14.05,14.05,0,0,1,2,4.86,19.63,19.63,0,0,1,.38,4.75,71.81,71.81,0,0,0,11.23-1.08,47,47,0,0,1,4.76-.7,3.62,3.62,0,0,1,3,.92c.58.58.61,1.58.11,3s-1.87,2.88-4.1,4.32q-8.32,5.5-21.28,6.59t-20.52-3a10.32,10.32,0,0,1-4.75-4.59,5.11,5.11,0,0,1,0-4.81,4.34,4.34,0,0,1,3.72-2.11A33.82,33.82,0,0,1,411.71,224.55Zm4.64-39.31a6.65,6.65,0,0,1,5.56-.81,26.35,26.35,0,0,0,5,.92,47.87,47.87,0,0,0,5.4.11,11.38,11.38,0,0,1,2.92.11c-.5-2.6-1-5.4-1.51-8.43A5.74,5.74,0,0,1,434,174a3.11,3.11,0,0,1,4.53-1.52,9.36,9.36,0,0,1,2.48,3.41,31.43,31.43,0,0,1,3.14,11,20.1,20.1,0,0,1-3.14,12.9,11.54,11.54,0,0,1-2.21,2.81,8.54,8.54,0,0,1-1.46,1.08,12,12,0,0,1-3.13,3.57,17.8,17.8,0,0,1-11.66,3.94,16.57,16.57,0,0,1-11.88-4.48,19,19,0,0,1-4.92-8.59q-1.66-5.56-1.46-15a29.94,29.94,0,0,1,1.35-9.45c.83-2.19,2-3.44,3.51-3.72a4.15,4.15,0,0,1,3.46,1c1.08.86,1.87,2.63,2.38,5.29.36,1.87.64,3.64.86,5.29S416.21,184.38,416.35,185.24Zm19.55,4a21.69,21.69,0,0,1-5.46,1.62,19.11,19.11,0,0,1-8.58,0,11.43,11.43,0,0,1-5-2.49q1.08,7.68,4.81,10.53a10.79,10.79,0,0,0,8.15,2.33,25.8,25.8,0,0,0,5.08-1.08q.54-2.6.91-5.35A22,22,0,0,0,435.9,189.24Zm37,16.31a47,47,0,0,1,10.91-.76,11.74,11.74,0,0,1,4.7,1.19c1.19.65,1.74,1.4,1.67,2.27-.07,1.22-1,2.14-2.7,2.75a19.28,19.28,0,0,1-6.37.92,32.87,32.87,0,0,1-3.94-.27c-1.48-.18-2.72-.34-3.73-.49a72.8,72.8,0,0,1-1,15q-1,5.94-3.94,8.32a6.74,6.74,0,0,1-6.64,1.19,9.64,9.64,0,0,1-5.51-4.54,13.06,13.06,0,0,1-1.41-8.53,127.52,127.52,0,0,0,1.3-19.6,74.58,74.58,0,0,0-2.59-17.12c-.87-3.17-1.15-5.31-.87-6.43a2.71,2.71,0,0,1,1.84-2.1,4.85,4.85,0,0,1,3.78.54,15.37,15.37,0,0,1,4.54,4.32A50.62,50.62,0,0,1,472.94,205.55Z" transform="translate(-52.38 -79.11)"/><path class="cls-18" d="M610.05,227.93q1.55,2.1-.14,4.69t-7.14,5.25q-15.54,7.41-36.75,7.77t-33.53-5.53q-6.57-3.23-8.89-6.79t-.63-6.51q1.83-3.23,6.79-3.78t13.93,2c3.55,1,7.1,1.86,10.64,2.52a44.77,44.77,0,0,1-2.24-6.37,89.31,89.31,0,0,1-2.52-11,16.89,16.89,0,0,1-.21-5.39q.36-2.17,1.47-2.73,2.52-1.26,6,1a16.21,16.21,0,0,1,5.6,6.16,30.56,30.56,0,0,1,3,8.26,44,44,0,0,1,.91,9.1,19.3,19.3,0,0,1-.14,2.52,96,96,0,0,0,29.26-2,40.82,40.82,0,0,1,9.66-1.26A6.17,6.17,0,0,1,610.05,227.93ZM547.61,181q-.14-9.39,5.6-14.21a20.65,20.65,0,0,1,13.3-5,17.39,17.39,0,0,1,12,4.62q5.53,4.75,5.11,14.56a15.38,15.38,0,0,1-5,11,18.42,18.42,0,0,1-10.71,5.11A20.46,20.46,0,0,1,554,193.84Q547.76,189.7,547.61,181Zm9.38-1.82c.1,2.8,1,4.78,2.66,5.95a8.19,8.19,0,0,0,5.18,1.61,8.61,8.61,0,0,0,6-2.38,8.05,8.05,0,0,0,2.38-5.6c.1-2.8-.7-4.9-2.38-6.3a7.24,7.24,0,0,0-5-2,9.3,9.3,0,0,0-6.65,2.87A8,8,0,0,0,557,179.21Zm20.86,48.16a2.53,2.53,0,0,1-2.38-1.89,14.56,14.56,0,0,1-.14-5.53,73.18,73.18,0,0,0,.7-9.24q.15-5.75,1.47-7.63a3.66,3.66,0,0,1,2.87-1.89,3.77,3.77,0,0,1,3.43,2,11.53,11.53,0,0,1,1.47,5,42.39,42.39,0,0,1,.14,6.16,33.14,33.14,0,0,1-1,6.72,8.08,8.08,0,0,1-2.94,5A5.76,5.76,0,0,1,577.85,227.37Z" transform="translate(-52.38 -79.11)"/><path class="cls-5" d="M201.44,404.76c1.51,2.06,1.44,4.37-.21,6.91s-5.15,5.11-10.5,7.72q-22.87,10.92-54.08,11.43t-49.34-8.13q-9.68-4.74-13.08-10t-.92-9.58q2.67-4.74,10-5.57t20.49,2.89a188.93,188.93,0,0,0,29.46,5.77,44,44,0,0,0,0-6.08q-.21-3.19-.82-9a11,11,0,0,1,.82-6.28,5.35,5.35,0,0,1,4.33-2.79,6.85,6.85,0,0,1,5.46,1.55q2.36,2,4,6.69A53.88,53.88,0,0,1,150.14,407a150.47,150.47,0,0,0,29.87-3.5q9.27-2.05,14.22-1.86C197.52,401.81,199.93,402.84,201.44,404.76Zm-83.23-71.89q6.81-.19,18.85.21t21.12.61a120.48,120.48,0,0,0-1.24-14q-1-7.83-.1-11.13a4.63,4.63,0,0,1,4-3.71q5.35-.62,9.47,5.15t4.95,17.31a88.25,88.25,0,0,1-1.34,23.38q-2.17,10.41-5.26,15.35-3.92,6.18-7.72,6.59c-2.54.28-4.36-.21-5.46-1.44q-11.53,8.24-26.68,6.9t-24.41-11.44q-6.59-7.2-9.17-19.67a72.64,72.64,0,0,1-.51-25.85q1.65-11.13,5.46-16.38a9.49,9.49,0,0,1,10.2-4q4.53.84,6.79,6.49t1.24,19.47Q118.21,330,118.21,332.87Zm40,9.27a177.39,177.39,0,0,1-20.09,2.37,74.27,74.27,0,0,1-19.26-.93,29.35,29.35,0,0,0,3.09,9.38,16.61,16.61,0,0,0,7.83,7.93q6,2.88,14,1.13t12.56-5.25Q158.18,351.82,158.18,342.14Z" transform="translate(-52.38 -79.11)"/><path class="cls-4" d="M203.44,408.76c1.51,2.06,1.44,4.37-.21,6.91s-5.15,5.11-10.5,7.72q-22.87,10.92-54.08,11.43t-49.34-8.13q-9.68-4.74-13.08-10t-.92-9.58q2.67-4.74,10-5.57t20.49,2.89a188.93,188.93,0,0,0,29.46,5.77,44,44,0,0,0,0-6.08q-.21-3.19-.82-9a11,11,0,0,1,.82-6.28,5.35,5.35,0,0,1,4.33-2.79,6.85,6.85,0,0,1,5.46,1.55q2.36,2,4,6.69A53.88,53.88,0,0,1,152.14,411a150.47,150.47,0,0,0,29.87-3.5q9.27-2.05,14.22-1.86C199.52,405.81,201.93,406.84,203.44,408.76Zm-83.23-71.89q6.81-.19,18.85.21t21.12.61a120.48,120.48,0,0,0-1.24-14q-1-7.83-.1-11.13a4.63,4.63,0,0,1,4-3.71q5.35-.62,9.47,5.15t4.95,17.31a88.25,88.25,0,0,1-1.34,23.38q-2.17,10.41-5.26,15.35-3.92,6.18-7.72,6.59c-2.54.28-4.36-.21-5.46-1.44q-11.53,8.24-26.68,6.9t-24.41-11.44q-6.59-7.2-9.17-19.67a72.64,72.64,0,0,1-.51-25.85q1.65-11.13,5.46-16.38a9.49,9.49,0,0,1,10.2-4q4.53.84,6.79,6.49t1.24,19.47Q120.21,334,120.21,336.87Zm40,9.27a177.39,177.39,0,0,1-20.09,2.37,74.27,74.27,0,0,1-19.26-.93,29.35,29.35,0,0,0,3.09,9.38,16.61,16.61,0,0,0,7.83,7.93q6,2.88,14,1.13t12.56-5.25Q160.18,355.82,160.18,346.14Z" transform="translate(-52.38 -79.11)"/><path class="cls-8" d="M280.17,339.74a104.05,104.05,0,0,0,14,.43q6.8-.26,14-1.11a67.8,67.8,0,0,1,12.72-.43q4.31.42,5,2.66t-2.41,5.16q-3.09,2.93-11.18,5.16a93.82,93.82,0,0,1-24.16,3.53q-11.61.08-19-3.7-5.34-2.74-7.14-5.94c-1.2-2.12-1.29-3.86-.26-5.24.92-1.14,2.41-1.69,4.47-1.63S273,339.06,280.17,339.74ZM302,360.38a2.7,2.7,0,0,1,1,.86,19.91,19.91,0,0,1,4.38.52,19.2,19.2,0,0,1,4.39,1.54,15.33,15.33,0,0,1,6.53,6.37,17.91,17.91,0,0,1,2.07,9.28A19.11,19.11,0,0,1,315.26,392a16.66,16.66,0,0,1-12.73,5.34q-9.79.17-15.48-5.34a18,18,0,0,1-5.5-13.93,22.11,22.11,0,0,1,2.92-10.83q2.76-4.65,9.12-6.88a13.1,13.1,0,0,1,4.9-.77A7.17,7.17,0,0,1,302,360.38Zm1.54-24.94a12.07,12.07,0,0,1-6-.6,13.08,13.08,0,0,1-6.36-4.55,20.82,20.82,0,0,1-4.47-9.63A48.57,48.57,0,0,1,286,309a23.78,23.78,0,0,1,2.5-9.37q2.14-4.21,6.79-2.84a10.43,10.43,0,0,1,5.07,4.13,18.21,18.21,0,0,1,2.84,5.85c.69,2.63,1.37,5.61,2.06,8.94s1.26,6.48,1.72,9.46q.86,5.33.09,7.56A4.2,4.2,0,0,1,303.56,335.44Zm-2.4,33a15.32,15.32,0,0,0-4.56,2,7,7,0,0,0-3.7,5.25,7.6,7.6,0,0,0,1.63,6.19c1.44,1.72,3.7,2.58,6.8,2.58a6.88,6.88,0,0,0,4.9-2.41,7.38,7.38,0,0,0,1.8-5.5,7.87,7.87,0,0,0-1.46-4.05,9.05,9.05,0,0,0-3.35-2.83A9,9,0,0,1,301.16,368.46Zm54.17,67.76c-1.15.34-2.53.69-4.13,1a56.71,56.71,0,0,1-14.1,1.12q-7.92-.25-11.7-3.7-2.92-2.75-4.47-8.51a58.42,58.42,0,0,1-1.72-13.67c-.11-3.9.4-6.71,1.55-8.43a4.93,4.93,0,0,1,5-2.23,8.63,8.63,0,0,1,6.7,3.78q5.51-.51,13.76-.69t12.21,2.75q4,2.93,4.73,8.86a48.49,48.49,0,0,1,.26,11.09q-.51,5.16-2.06,7a5.08,5.08,0,0,1-3.27,2A6,6,0,0,1,355.33,436.22Zm-14.45-68.79a25,25,0,0,1-10.15-1.29q-4.47-1.63-4.81-4.38a4.5,4.5,0,0,1,1.55-3.53q1.71-1.8,7.22-2.66a87.87,87.87,0,0,1,9.89-1.12q4.73-.26,8.51-.26a116.15,116.15,0,0,0-5.16-33.36,35.64,35.64,0,0,1-1.55-7.48A4.94,4.94,0,0,1,348.1,309q1.56-1.2,5-.26t8.43,6.11A76.49,76.49,0,0,1,381.81,375q-1.72,14.28-6.53,19.6a13.05,13.05,0,0,1-11.87,4.48q-7.05-.87-9.63-6t-1.2-20.3c.22-2.63.4-5.38.51-8.25A43.46,43.46,0,0,1,340.88,367.43Zm-6.19,46.09c.11,2.3.23,4.62.34,7a10,10,0,0,0,1.72,5.58c.92,1.27,2.58,2,5,2.33a41.25,41.25,0,0,0,10.32-.61q-.18-3.6-.52-7.73T349,414.38q-2.23-1.54-6.7-1.29Z" transform="translate(-52.38 -79.11)"/><path class="cls-4" d="M285.17,342.74a104.05,104.05,0,0,0,14,.43q6.8-.26,14-1.11a67.8,67.8,0,0,1,12.72-.43q4.31.42,5,2.66t-2.41,5.16q-3.09,2.93-11.18,5.16a93.82,93.82,0,0,1-24.16,3.53q-11.61.08-19-3.7-5.34-2.74-7.14-5.94c-1.2-2.12-1.29-3.86-.26-5.24.92-1.14,2.41-1.69,4.47-1.63S278,342.06,285.17,342.74ZM307,363.38a2.7,2.7,0,0,1,1,.86,19.91,19.91,0,0,1,4.38.52,19.2,19.2,0,0,1,4.39,1.54,15.33,15.33,0,0,1,6.53,6.37,17.91,17.91,0,0,1,2.07,9.28A19.11,19.11,0,0,1,320.26,395a16.66,16.66,0,0,1-12.73,5.34q-9.79.17-15.48-5.34a18,18,0,0,1-5.5-13.93,22.11,22.11,0,0,1,2.92-10.83q2.76-4.65,9.12-6.88a13.1,13.1,0,0,1,4.9-.77A7.17,7.17,0,0,1,307,363.38Zm1.54-24.94a12.07,12.07,0,0,1-6-.6,13.08,13.08,0,0,1-6.36-4.55,20.82,20.82,0,0,1-4.47-9.63A48.57,48.57,0,0,1,291,312a23.78,23.78,0,0,1,2.5-9.37q2.14-4.21,6.79-2.84a10.43,10.43,0,0,1,5.07,4.13,18.21,18.21,0,0,1,2.84,5.85c.69,2.63,1.37,5.61,2.06,8.94s1.26,6.48,1.72,9.46q.86,5.33.09,7.56A4.2,4.2,0,0,1,308.56,338.44Zm-2.4,33a15.32,15.32,0,0,0-4.56,2,7,7,0,0,0-3.7,5.25,7.6,7.6,0,0,0,1.63,6.19c1.44,1.72,3.7,2.58,6.8,2.58a6.88,6.88,0,0,0,4.9-2.41,7.38,7.38,0,0,0,1.8-5.5,7.87,7.87,0,0,0-1.46-4.05,9.05,9.05,0,0,0-3.35-2.83A9,9,0,0,1,306.16,371.46Zm54.17,67.76c-1.15.34-2.53.69-4.13,1a56.71,56.71,0,0,1-14.1,1.12q-7.92-.25-11.7-3.7-2.92-2.75-4.47-8.51a58.42,58.42,0,0,1-1.72-13.67c-.11-3.9.4-6.71,1.55-8.43a4.93,4.93,0,0,1,5-2.23,8.63,8.63,0,0,1,6.7,3.78q5.51-.51,13.76-.69t12.21,2.75q4,2.93,4.73,8.86a48.49,48.49,0,0,1,.26,11.09q-.51,5.16-2.06,7a5.08,5.08,0,0,1-3.27,2A6,6,0,0,1,360.33,439.22Zm-14.45-68.79a25,25,0,0,1-10.15-1.29q-4.47-1.63-4.81-4.38a4.5,4.5,0,0,1,1.55-3.53q1.71-1.8,7.22-2.66a87.87,87.87,0,0,1,9.89-1.12q4.73-.26,8.51-.26a116.15,116.15,0,0,0-5.16-33.36,35.64,35.64,0,0,1-1.55-7.48A4.94,4.94,0,0,1,353.1,312q1.56-1.2,5-.26t8.43,6.11A76.49,76.49,0,0,1,386.81,378q-1.72,14.28-6.53,19.6a13.05,13.05,0,0,1-11.87,4.48q-7.05-.87-9.63-6t-1.2-20.3c.22-2.63.4-5.38.51-8.25A43.46,43.46,0,0,1,345.88,370.43Zm-6.19,46.09c.11,2.3.23,4.62.34,7a10,10,0,0,0,1.72,5.58c.92,1.27,2.58,2,5,2.33a41.25,41.25,0,0,0,10.32-.61q-.18-3.6-.52-7.73T354,417.38q-2.23-1.54-6.7-1.29Z" transform="translate(-52.38 -79.11)"/><path class="cls-11" d="M458,411.52a54.12,54.12,0,0,0,25.1,2.4q12.14-1.83,18.05-3.95,4.51-1.55,6.42-.84a4,4,0,0,1,2.46,2c.57,1.41.28,3-.84,4.72a18.51,18.51,0,0,1-5.22,5,62.29,62.29,0,0,1-27.35,10.29q-14.38,1.69-25.1-3.52a17.4,17.4,0,0,1-8-7.12q-2.61-4.59-.35-8.11,1.69-2.53,6.27-2.33A32.86,32.86,0,0,1,458,411.52Zm15.09-53.44a15.73,15.73,0,0,1,11.49,5.43,18.73,18.73,0,0,1,4.73,11.07,17.23,17.23,0,0,1-3.6,12.06q-4,5.14-12.48,5a18.25,18.25,0,0,1-11.14-4.16q-5.07-4-5.64-11.49a17.09,17.09,0,0,1,4.16-12.55A14.25,14.25,0,0,1,473.12,358.08Zm-.14,8.46a6,6,0,0,0-5.5,2.26,8.26,8.26,0,0,0-1.83,5.64,6.35,6.35,0,0,0,2.25,4.86,7.93,7.93,0,0,0,4.8,1.91,6.43,6.43,0,0,0,5.22-1.83,7.15,7.15,0,0,0,1.69-5.36,8.64,8.64,0,0,0-2-4.87A6.56,6.56,0,0,0,473,366.54Zm67.54,45.69a29.46,29.46,0,0,1-4.87,14.17q-4.29,6.56-10.22,5.43c-3.19-.57-5.69-2.54-7.47-5.92a16.42,16.42,0,0,1-2-10.16,119.8,119.8,0,0,0,.63-29,103.88,103.88,0,0,0-5.71-24.11,9,9,0,0,1-.64-4.16A2.74,2.74,0,0,1,511.9,356a5.83,5.83,0,0,1,4.93-.07,16.23,16.23,0,0,1,4.51,3.31,71.33,71.33,0,0,1,14.95,23Q541.65,395.31,540.52,412.23Z" transform="translate(-52.38 -79.11)"/><path class="cls-4" d="M460,414.52a54.12,54.12,0,0,0,25.1,2.4q12.14-1.83,18.05-3.95,4.51-1.55,6.42-.84a4,4,0,0,1,2.46,2c.57,1.41.28,3-.84,4.72a18.51,18.51,0,0,1-5.22,5,62.29,62.29,0,0,1-27.35,10.29q-14.38,1.69-25.1-3.52a17.4,17.4,0,0,1-8-7.12q-2.61-4.59-.35-8.11,1.69-2.53,6.27-2.33A32.86,32.86,0,0,1,460,414.52Zm15.09-53.44a15.73,15.73,0,0,1,11.49,5.43,18.73,18.73,0,0,1,4.73,11.07,17.23,17.23,0,0,1-3.6,12.06q-4,5.14-12.48,5a18.25,18.25,0,0,1-11.14-4.16q-5.07-4-5.64-11.49a17.09,17.09,0,0,1,4.16-12.55A14.25,14.25,0,0,1,475.12,361.08Zm-.14,8.46a6,6,0,0,0-5.5,2.26,8.26,8.26,0,0,0-1.83,5.64,6.35,6.35,0,0,0,2.25,4.86,7.93,7.93,0,0,0,4.8,1.91,6.43,6.43,0,0,0,5.22-1.83,7.15,7.15,0,0,0,1.69-5.36,8.64,8.64,0,0,0-2-4.87A6.56,6.56,0,0,0,475,369.54Zm67.54,45.69a29.46,29.46,0,0,1-4.87,14.17q-4.29,6.56-10.22,5.43c-3.19-.57-5.69-2.54-7.47-5.92a16.42,16.42,0,0,1-2-10.16,119.8,119.8,0,0,0,.63-29,103.88,103.88,0,0,0-5.71-24.11,9,9,0,0,1-.64-4.16A2.74,2.74,0,0,1,513.9,359a5.83,5.83,0,0,1,4.93-.07,16.23,16.23,0,0,1,4.51,3.31,71.33,71.33,0,0,1,14.95,23Q543.65,398.31,542.52,415.23Z" transform="translate(-52.38 -79.11)"/><path class="cls-14" d="M692.29,386a23.24,23.24,0,0,1,1,5.36,36.42,36.42,0,0,1,0,5.91,12.48,12.48,0,0,1-2.34,6.58,6.26,6.26,0,0,1-4.55,2.44,12.13,12.13,0,0,1-8.25-2.16,10.23,10.23,0,0,1-4.31-6.86,39.44,39.44,0,0,1-.74-6.48,43.42,43.42,0,0,1,.25-4.6q-35.94-1.69-57.61-8.64-7.87-2.44-10.58-5.82a7,7,0,0,1-1.48-6.95q1.23-3.39,6.28-4.51t14.4.94a228,228,0,0,0,50.59,4.41q27.2-.47,45.42-6.29a67,67,0,0,1,22-3q11,.38,14.41,3.76,4.19,4.32-.5,9.58t-18.21,9A203,203,0,0,1,692.29,386Zm-31.51-40.57a20.64,20.64,0,0,1-10.47,8.36,19.14,19.14,0,0,1-12.18.65Q629,351.65,627.54,343a31,31,0,0,1,2.22-17.47,67.28,67.28,0,0,1,11.57-18.41A109.53,109.53,0,0,1,655.85,293q6.64-5.07,10-6.11a14.93,14.93,0,0,1,6.28-.66,6.43,6.43,0,0,1,5.17,3.67,13,13,0,0,1,1,7.23,41.79,41.79,0,0,1-2.21,9.11q-1.49,3.86-4.19,9.67a128.05,128.05,0,0,0-5.41,15.41Q663.49,341.31,660.78,345.44Zm-16.25,70.25c0-2,1.06-3.53,3.2-4.6s5.57-1.72,10.34-2q8.11-.37,24.74,1t27.45,2.73q7.88.93,10.71,2.53a3.71,3.71,0,0,1,1.84,4.79c-.65,2-2.67,3.57-6,4.7A46.63,46.63,0,0,1,704.6,427a113.37,113.37,0,0,1-.5,15.59q2.71,0,5.91-.18,8.13-.37,10.71.75t2.34,3.38q-.25,2.63-5.91,4.51a72,72,0,0,1-14.77,2.82,204.35,204.35,0,0,1-21.54,1,143.92,143.92,0,0,1-18.1-1.22q-8.12-1.12-12.18-3.38t-4.06-5.08c0-1.87,1.39-3.16,4.18-3.85s8.21-.72,16.25-.09q-1.73-1.12-2.34-7.23a37.83,37.83,0,0,1-.12-9.11,43.86,43.86,0,0,1-14.4-3.29C646.37,419.92,644.53,418,644.53,415.69Zm46.28,11.09q-7.14-.19-15.26-.76a21.88,21.88,0,0,1,.73,4.61,25.91,25.91,0,0,1,0,5.16q-.74,4.51-3.93,5.83,10.33.75,18.46.93A42.22,42.22,0,0,1,690.81,426.78Zm-16-104.07a3.2,3.2,0,0,1,1.84-2.91q1.85-1,7-.66A122.31,122.31,0,0,1,701,321.86a114.63,114.63,0,0,1,15.63,4.42q6.65,2.63,9,5.16c1.56,1.69,2.1,3.23,1.6,4.6-.33,1.13-1.47,2-3.44,2.73s-5.09.84-9.36.47a93.21,93.21,0,0,1-13.66-2.63,99.62,99.62,0,0,1-14.89-5.07,36.35,36.35,0,0,1-8-4.42Q674.81,324.78,674.81,322.71Z" transform="translate(-52.38 -79.11)"/><path class="cls-14" d="M714.73,317.94l-1-.32a1.47,1.47,0,0,1-.88-1.78h0c1.75-7,8.19-11,14.37-9l1,.31a1.47,1.47,0,0,1,.88,1.78h0C727.35,315.86,720.92,319.92,714.73,317.94Z" transform="translate(-52.38 -79.11)"/><path class="cls-14" d="M698.27,306.81l-.21-1.13a1.44,1.44,0,0,1,1-1.71h0c6.29-1.51,12.47,3,13.8,10.13l.21,1.13a1.44,1.44,0,0,1-1,1.71h0C705.78,318.45,699.6,313.91,698.27,306.81Z" transform="translate(-52.38 -79.11)"/><path class="cls-14" d="M712.32,324.47s2.36-8.46,0-10.92a16.83,16.83,0,0,1-1,10.62Z" transform="translate(-52.38 -79.11)"/><path class="cls-4" d="M694.29,390a23.24,23.24,0,0,1,1,5.36,36.42,36.42,0,0,1,0,5.91,12.48,12.48,0,0,1-2.34,6.58,6.26,6.26,0,0,1-4.55,2.44,12.13,12.13,0,0,1-8.25-2.16,10.23,10.23,0,0,1-4.31-6.86,39.44,39.44,0,0,1-.74-6.48,43.42,43.42,0,0,1,.25-4.6q-35.94-1.69-57.61-8.64-7.87-2.44-10.58-5.82a7,7,0,0,1-1.48-6.95q1.23-3.39,6.28-4.51t14.4.94a228,228,0,0,0,50.59,4.41q27.2-.47,45.42-6.29a67,67,0,0,1,22-3q11,.38,14.41,3.76,4.19,4.32-.5,9.58t-18.21,9A203,203,0,0,1,694.29,390Zm-31.51-40.57a20.64,20.64,0,0,1-10.47,8.36,19.14,19.14,0,0,1-12.18.65Q631,355.65,629.54,347a31,31,0,0,1,2.22-17.47,67.28,67.28,0,0,1,11.57-18.41A109.53,109.53,0,0,1,657.85,297q6.64-5.07,10-6.11a14.93,14.93,0,0,1,6.28-.66,6.43,6.43,0,0,1,5.17,3.67,13,13,0,0,1,1,7.23,41.79,41.79,0,0,1-2.21,9.11q-1.49,3.86-4.19,9.67a128.05,128.05,0,0,0-5.41,15.41Q665.49,345.31,662.78,349.44Zm-16.25,70.25c0-2,1.06-3.53,3.2-4.6s5.57-1.72,10.34-2q8.11-.37,24.74,1t27.45,2.73q7.88.93,10.71,2.53a3.71,3.71,0,0,1,1.84,4.79c-.65,2-2.67,3.57-6,4.7A46.63,46.63,0,0,1,706.6,431a113.37,113.37,0,0,1-.5,15.59q2.71,0,5.91-.18,8.13-.37,10.71.75t2.34,3.38q-.25,2.63-5.91,4.51a72,72,0,0,1-14.77,2.82,204.35,204.35,0,0,1-21.54,1,143.92,143.92,0,0,1-18.1-1.22q-8.12-1.12-12.18-3.38t-4.06-5.08c0-1.87,1.39-3.16,4.18-3.85s8.21-.72,16.25-.09q-1.73-1.12-2.34-7.23a37.83,37.83,0,0,1-.12-9.11,43.86,43.86,0,0,1-14.4-3.29C648.37,423.92,646.53,422,646.53,419.69Zm46.28,11.09q-7.14-.19-15.26-.76a21.88,21.88,0,0,1,.73,4.61,25.91,25.91,0,0,1,0,5.16q-.74,4.51-3.93,5.83,10.33.75,18.46.93A42.22,42.22,0,0,1,692.81,430.78Zm-16-104.07a3.2,3.2,0,0,1,1.84-2.91q1.85-1,7-.66A122.31,122.31,0,0,1,703,325.86a114.63,114.63,0,0,1,15.63,4.42q6.65,2.63,9,5.16c1.56,1.69,2.1,3.23,1.6,4.6-.33,1.13-1.47,2-3.44,2.73s-5.09.84-9.36.47a93.21,93.21,0,0,1-13.66-2.63,99.62,99.62,0,0,1-14.89-5.07,36.35,36.35,0,0,1-8-4.42Q676.81,328.78,676.81,326.71Z" transform="translate(-52.38 -79.11)"/><path class="cls-4" d="M716.73,321.94l-1-.32a1.47,1.47,0,0,1-.88-1.78h0c1.75-7,8.19-11,14.37-9l1,.31a1.47,1.47,0,0,1,.88,1.78h0C729.35,319.86,722.92,323.92,716.73,321.94Z" transform="translate(-52.38 -79.11)"/><path class="cls-4" d="M700.27,310.81l-.21-1.13a1.44,1.44,0,0,1,1-1.71h0c6.29-1.51,12.47,3,13.8,10.13l.21,1.13a1.44,1.44,0,0,1-1,1.71h0C707.78,322.45,701.6,317.91,700.27,310.81Z" transform="translate(-52.38 -79.11)"/><path class="cls-4" d="M714.32,328.47s2.36-8.46,0-10.92a16.83,16.83,0,0,1-1,10.62Z" transform="translate(-52.38 -79.11)"/><path class="cls-1" d="M233.38,267.78a3.94,3.94,0,0,0-2.15-.64c-5,0-7.34-1.57-10.27-3.56-3.24-2.2-7.27-4.94-14.76-4.94s-11.52,2.74-14.76,4.94c-2.93,2-5.25,3.56-10.27,3.56s-7.35-1.57-10.27-3.56c-3.25-2.2-7.28-4.94-14.77-4.94s-11.52,2.74-14.77,4.94c-2.92,2-5.24,3.56-10.27,3.56-.11,0-.22,0-.33,0,2,3.57,5.21,6.68,10.08,6a33,33,0,0,0,5-3c2.93-2,5.24-3.56,10.27-3.56s7.34,1.57,10.27,3.56c3.24,2.2,7.28,4.94,14.77,4.94s11.52-2.74,14.76-4.94c2.93-2,5.24-3.56,10.27-3.56s7.34,1.57,10.27,3.56a26.53,26.53,0,0,0,7.88,4C228.66,274.26,231.53,271.17,233.38,267.78Z" transform="translate(-52.38 -79.11)"/><path class="cls-1" d="M615.27,266.7a3.92,3.92,0,0,0-2.14-.63c-4.34,0-6.27-1.45-9-3.46-3-2.25-6.74-5.05-13.75-5.05s-10.74,2.8-13.74,5.05c-2.68,2-4.61,3.46-9,3.46s-6.27-1.45-9-3.46c-3-2.25-6.74-5.05-13.75-5.05s-10.75,2.8-13.75,5.05c-2.68,2-4.61,3.46-9,3.46a3.94,3.94,0,0,0-2.07.59c2,3.62,5.28,6.81,10.14,5.85a27,27,0,0,0,5.69-3.49c2.67-2,4.6-3.46,8.95-3.46s6.28,1.45,9,3.46c3,2.25,6.74,5.05,13.75,5.05s10.75-2.8,13.75-5.05c2.68-2,4.61-3.46,8.95-3.46s6.28,1.45,9,3.46a23.2,23.2,0,0,0,7.77,4.24C611.1,273,613.67,269.92,615.27,266.7Z" transform="translate(-52.38 -79.11)"/></svg>