<svg xmlns="http://www.w3.org/2000/svg" viewBox="0 0 202.79 112.35"><defs><style>.cls-1{font-size:50px;font-family:BerlinSansFBDemi-Bold, Berlin Sans FB Demi;font-weight:700;letter-spacing:0em;}.cls-1,.cls-3{fill:#448ef6;}.cls-2{letter-spacing:0em;}</style></defs><g id="Layer_2" data-name="Layer 2"><g id="Layer_1-2" data-name="Layer 1"><text class="cls-1" transform="translate(84.46 42.12)">sori<tspan class="cls-2"><tspan x="0" y="60">bada</tspan></tspan></text><path class="cls-3" d="M3.29,46.14c2.86,4.84,5.34,9,10.12,9s7.25-4.18,10.12-9c3-5.15,6.5-11,13.56-11s10.52,5.84,13.56,11c2.87,4.84,5.34,9,10.12,9S68,51,70.9,46.14a43.5,43.5,0,0,1,4.24-6.31A39.35,39.35,0,0,0,2,43.92C2.41,44.66,2.85,45.41,3.29,46.14Z"/><path class="cls-3" d="M13.41,73.46c4.78,0,7.25-4.19,10.12-9,3-5.15,6.5-11,13.56-11s10.52,5.84,13.56,11c2.87,4.84,5.34,9,10.12,9s7.26-4.19,10.13-9c2.07-3.49,4.32-7.3,7.77-9.39a39.34,39.34,0,0,0-1.84-10.86c-.84,1.22-1.65,2.57-2.49,4-3,5.15-6.5,11-13.57,11s-10.51-5.84-13.56-11c-2.86-4.84-5.34-9-10.12-9s-7.26,4.18-10.12,9c-3,5.15-6.5,11-13.56,11-6.5,0-9.94-4.94-12.82-9.74A39.62,39.62,0,0,0,0,56.18c0,1.12.06,2.24.15,3.34a57.28,57.28,0,0,1,3.14,4.91C6.15,69.27,8.63,73.46,13.41,73.46Z"/><path class="cls-3" d="M74.34,66.47c-3,5.15-6.5,11-13.57,11s-10.51-5.84-13.56-11c-2.86-4.84-5.34-9-10.12-9s-7.26,4.19-10.12,9c-3,5.15-6.5,11-13.56,11-4.72,0-7.83-2.62-10.28-5.88A39.35,39.35,0,0,0,78.47,60.37,38.29,38.29,0,0,0,74.34,66.47Z"/></g></g></svg>