<svg xmlns="http://www.w3.org/2000/svg" viewBox="0 0 254.07 254.07"><defs><style>.cls-1{fill:#fff;}.cls-2{fill:#519bd5;}</style></defs><g id="Layer_2" data-name="Layer 2"><g id="Layer_1-2" data-name="Layer 1"><rect class="cls-1" width="254.07" height="254.07"/><path class="cls-2" d="M23.29,79H68a32.83,32.83,0,0,1,9.75,1.4,21.5,21.5,0,0,1,7.85,4.25A19.62,19.62,0,0,1,90.79,92a27.23,27.23,0,0,1,1.9,10.6q0,8-2.7,13a20.19,20.19,0,0,1-8,7.95l15.2,35.2H75.49l-12.4-29.2-19,4.2v25H23.29ZM72,103.09a7,7,0,0,0-1.85-4.85,6.35,6.35,0,0,0-5-2H44.09v19.3l19-3.5q5.1-.9,7-3.3A8.8,8.8,0,0,0,72,103.09Z"/><path class="cls-2" d="M127,76.19v17.2h-20.8V76.19Zm0,23.2v59.3h-20.8V99.39Z"/><path class="cls-2" d="M196.29,158.69h-20.8v-35.9a9.33,9.33,0,0,0-1.75-5.8,6,6,0,0,0-5.05-2.3,5.16,5.16,0,0,0-2.8.75,6.72,6.72,0,0,0-2,1.9,11.19,11.19,0,0,0-1.35,2.6,12.79,12.79,0,0,0-.75,2.85v35.9H141V99.39h17.8l1.6,4.2a17,17,0,0,1,6.9-4.7,24.22,24.22,0,0,1,7.7-1.5,18.56,18.56,0,0,1,8.75,2,21.06,21.06,0,0,1,7.35,6.1,19.63,19.63,0,0,1,8.65-6.4,26.38,26.38,0,0,1,9.65-1.7,20.08,20.08,0,0,1,8,1.85,21.13,21.13,0,0,1,6.85,5,24.58,24.58,0,0,1,4.8,7.85,28,28,0,0,1,1.8,10.3v36.3H210v-35.9a9.33,9.33,0,0,0-1.75-5.8,6,6,0,0,0-5.05-2.3,5.78,5.78,0,0,0-4.75,2,10.4,10.4,0,0,0-2.15,5.1Z"/></g></g></svg>